<svg xmlns="http://www.w3.org/2000/svg" viewBox="0 0 100 100" preserveAspectRatio="xMidYMid" width="211" height="211" style="shape-rendering: auto; display: block; background: rgb(255, 255, 255);" xmlns:xlink="http://www.w3.org/1999/xlink"><g><g transform="rotate(0 50 50)">
  <rect fill="#71c5fe" height="24" width="10" ry="12" rx="5" y="16" x="45">
    <animate repeatCount="indefinite" begin="-0.8333333333333333s" dur="0.9523809523809523s" keyTimes="0;1" values="1;0" attributeName="opacity"></animate>
  </rect>
</g><g transform="rotate(45 50 50)">
  <rect fill="#71c5fe" height="24" width="10" ry="12" rx="5" y="16" x="45">
    <animate repeatCount="indefinite" begin="-0.7142857142857143s" dur="0.9523809523809523s" keyTimes="0;1" values="1;0" attributeName="opacity"></animate>
  </rect>
</g><g transform="rotate(90 50 50)">
  <rect fill="#71c5fe" height="24" width="10" ry="12" rx="5" y="16" x="45">
    <animate repeatCount="indefinite" begin="-0.5952380952380952s" dur="0.9523809523809523s" keyTimes="0;1" values="1;0" attributeName="opacity"></animate>
  </rect>
</g><g transform="rotate(135 50 50)">
  <rect fill="#71c5fe" height="24" width="10" ry="12" rx="5" y="16" x="45">
    <animate repeatCount="indefinite" begin="-0.47619047619047616s" dur="0.9523809523809523s" keyTimes="0;1" values="1;0" attributeName="opacity"></animate>
  </rect>
</g><g transform="rotate(180 50 50)">
  <rect fill="#71c5fe" height="24" width="10" ry="12" rx="5" y="16" x="45">
    <animate repeatCount="indefinite" begin="-0.35714285714285715s" dur="0.9523809523809523s" keyTimes="0;1" values="1;0" attributeName="opacity"></animate>
  </rect>
</g><g transform="rotate(225 50 50)">
  <rect fill="#71c5fe" height="24" width="10" ry="12" rx="5" y="16" x="45">
    <animate repeatCount="indefinite" begin="-0.23809523809523808s" dur="0.9523809523809523s" keyTimes="0;1" values="1;0" attributeName="opacity"></animate>
  </rect>
</g><g transform="rotate(270 50 50)">
  <rect fill="#71c5fe" height="24" width="10" ry="12" rx="5" y="16" x="45">
    <animate repeatCount="indefinite" begin="-0.11904761904761904s" dur="0.9523809523809523s" keyTimes="0;1" values="1;0" attributeName="opacity"></animate>
  </rect>
</g><g transform="rotate(315 50 50)">
  <rect fill="#71c5fe" height="24" width="10" ry="12" rx="5" y="16" x="45">
    <animate repeatCount="indefinite" begin="0s" dur="0.9523809523809523s" keyTimes="0;1" values="1;0" attributeName="opacity"></animate>
  </rect>
</g><g></g></g><!-- [ldio] generated by https://loading.io --></svg>